<?xml version="1.0" encoding="UTF-8" standalone="no"?>
<!DOCTYPE svg PUBLIC "-//W3C//DTD SVG 1.1//EN"
 "http://www.w3.org/Graphics/SVG/1.1/DTD/svg11.dtd">
<!-- Generated by graphviz version 2.47.0 (20210316.0004)
 -->
<!-- Title: dependencies Pages: 1 -->
<svg width="504pt" height="211pt"
 viewBox="0.00 0.00 504.00 211.00" xmlns="http://www.w3.org/2000/svg" xmlns:xlink="http://www.w3.org/1999/xlink">
<g id="graph0" class="graph" transform="scale(1 1) rotate(0) translate(4 207)">
<title>dependencies</title>
<polygon fill="white" stroke="transparent" points="-4,4 -4,-207 500,-207 500,4 -4,4"/>
<text text-anchor="start" x="227.01" y="-42.4" font-family="sans-serif" font-weight="bold" font-size="14.00">Legend</text>
<polygon fill="#ffffb3" stroke="transparent" points="14,-10 14,-30 34,-30 34,-10 14,-10"/>
<text text-anchor="start" x="37.63" y="-15.4" font-family="sans-serif" font-size="14.00"> &#160;Declarations</text>
<polygon fill="#8dd3c7" stroke="transparent" points="127,-10 127,-30 147,-30 147,-10 127,-10"/>
<text text-anchor="start" x="150.73" y="-15.4" font-family="sans-serif" font-size="14.00"> &#160;Module</text>
<polygon fill="#80b1d3" stroke="transparent" points="213,-10 213,-30 233,-30 233,-10 213,-10"/>
<text text-anchor="start" x="236.78" y="-15.4" font-family="sans-serif" font-size="14.00"> &#160;Bootstrap</text>
<polygon fill="#fdb462" stroke="transparent" points="310,-10 310,-30 330,-30 330,-10 310,-10"/>
<text text-anchor="start" x="333.67" y="-15.4" font-family="sans-serif" font-size="14.00"> &#160;Providers</text>
<polygon fill="#fb8072" stroke="transparent" points="406,-10 406,-30 426,-30 426,-10 406,-10"/>
<text text-anchor="start" x="429.73" y="-15.4" font-family="sans-serif" font-size="14.00"> &#160;Exports</text>
<g id="clust1" class="cluster">
<title>cluster_CoreModule</title>
<polygon fill="none" stroke="black" stroke-dasharray="1,5" points="68,-70 68,-195 428,-195 428,-70 68,-70"/>
</g>
<g id="clust4" class="cluster">
<title>cluster_CoreModule_exports</title>
<polygon fill="none" stroke="black" points="76,-135 76,-187 420,-187 420,-135 76,-135"/>
</g>
<!-- IconsModule  -->
<g id="node1" class="node">
<title>IconsModule </title>
<polygon fill="#fb8072" stroke="black" points="411.87,-179 318.13,-179 318.13,-143 411.87,-143 411.87,-179"/>
<text text-anchor="middle" x="365" y="-156.8" font-family="Times,serif" font-size="14.00">IconsModule </text>
</g>
<!-- TemplatesModule  -->
<g id="node2" class="node">
<title>TemplatesModule </title>
<polygon fill="#fb8072" stroke="black" points="300.86,-179 179.14,-179 179.14,-143 300.86,-143 300.86,-179"/>
<text text-anchor="middle" x="240" y="-156.8" font-family="Times,serif" font-size="14.00">TemplatesModule </text>
</g>
<!-- UiModule  -->
<g id="node3" class="node">
<title>UiModule </title>
<polygon fill="#fb8072" stroke="black" points="161.55,-179 84.45,-179 84.45,-143 161.55,-143 161.55,-179"/>
<text text-anchor="middle" x="123" y="-156.8" font-family="Times,serif" font-size="14.00">UiModule </text>
</g>
<!-- CoreModule -->
<g id="node4" class="node">
<title>CoreModule</title>
<polygon fill="#8dd3c7" stroke="black" points="283.26,-114 280.26,-118 259.26,-118 256.26,-114 196.74,-114 196.74,-78 283.26,-78 283.26,-114"/>
<text text-anchor="middle" x="240" y="-91.8" font-family="Times,serif" font-size="14.00">CoreModule</text>
</g>
<!-- CoreModule&#45;&gt;IconsModule  -->
<g id="edge1" class="edge">
<title>CoreModule&#45;&gt;IconsModule </title>
<path fill="none" stroke="black" stroke-dasharray="5,2" d="M283.37,-96C319.47,-96 365,-96 365,-96 365,-96 365,-132.89 365,-132.89"/>
<polygon fill="black" stroke="black" points="361.5,-132.89 365,-142.89 368.5,-132.89 361.5,-132.89"/>
</g>
<!-- CoreModule&#45;&gt;TemplatesModule  -->
<g id="edge2" class="edge">
<title>CoreModule&#45;&gt;TemplatesModule </title>
<path fill="none" stroke="black" stroke-dasharray="5,2" d="M240,-114.11C240,-114.11 240,-132.99 240,-132.99"/>
<polygon fill="black" stroke="black" points="236.5,-132.99 240,-142.99 243.5,-132.99 236.5,-132.99"/>
</g>
<!-- CoreModule&#45;&gt;UiModule  -->
<g id="edge3" class="edge">
<title>CoreModule&#45;&gt;UiModule </title>
<path fill="none" stroke="black" stroke-dasharray="5,2" d="M196.43,-96C163.17,-96 123,-96 123,-96 123,-96 123,-132.89 123,-132.89"/>
<polygon fill="black" stroke="black" points="119.5,-132.89 123,-142.89 126.5,-132.89 119.5,-132.89"/>
</g>
</g>
</svg>
