<?xml version="1.0" encoding="UTF-8" standalone="no"?>
<!DOCTYPE svg PUBLIC "-//W3C//DTD SVG 1.1//EN"
 "http://www.w3.org/Graphics/SVG/1.1/DTD/svg11.dtd">
<!-- Generated by graphviz version 2.47.0 (20210316.0004)
 -->
<!-- Title: dependencies Pages: 1 -->
<svg width="963pt" height="211pt"
 viewBox="0.00 0.00 963.00 211.00" xmlns="http://www.w3.org/2000/svg" xmlns:xlink="http://www.w3.org/1999/xlink">
<g id="graph0" class="graph" transform="scale(1 1) rotate(0) translate(4 207)">
<title>dependencies</title>
<polygon fill="white" stroke="transparent" points="-4,4 -4,-207 959,-207 959,4 -4,4"/>
<text text-anchor="start" x="456.51" y="-42.4" font-family="sans-serif" font-weight="bold" font-size="14.00">Legend</text>
<polygon fill="#ffffb3" stroke="transparent" points="243.5,-10 243.5,-30 263.5,-30 263.5,-10 243.5,-10"/>
<text text-anchor="start" x="267.13" y="-15.4" font-family="sans-serif" font-size="14.00"> &#160;Declarations</text>
<polygon fill="#8dd3c7" stroke="transparent" points="356.5,-10 356.5,-30 376.5,-30 376.5,-10 356.5,-10"/>
<text text-anchor="start" x="380.23" y="-15.4" font-family="sans-serif" font-size="14.00"> &#160;Module</text>
<polygon fill="#80b1d3" stroke="transparent" points="442.5,-10 442.5,-30 462.5,-30 462.5,-10 442.5,-10"/>
<text text-anchor="start" x="466.28" y="-15.4" font-family="sans-serif" font-size="14.00"> &#160;Bootstrap</text>
<polygon fill="#fdb462" stroke="transparent" points="539.5,-10 539.5,-30 559.5,-30 559.5,-10 539.5,-10"/>
<text text-anchor="start" x="563.17" y="-15.4" font-family="sans-serif" font-size="14.00"> &#160;Providers</text>
<polygon fill="#fb8072" stroke="transparent" points="635.5,-10 635.5,-30 655.5,-30 655.5,-10 635.5,-10"/>
<text text-anchor="start" x="659.23" y="-15.4" font-family="sans-serif" font-size="14.00"> &#160;Exports</text>
<g id="clust1" class="cluster">
<title>cluster_LoginModule</title>
<polygon fill="none" stroke="black" stroke-dasharray="1,5" points="8,-70 8,-195 947,-195 947,-70 8,-70"/>
</g>
<g id="clust7" class="cluster">
<title>cluster_LoginModule_imports</title>
<polygon fill="none" stroke="black" points="785,-78 785,-130 939,-130 939,-78 785,-78"/>
</g>
<g id="clust2" class="cluster">
<title>cluster_LoginModule_declarations</title>
<polygon fill="none" stroke="black" points="16,-78 16,-130 777,-130 777,-78 16,-78"/>
</g>
<!-- PageForgotPasswordComponent -->
<g id="node1" class="node">
<title>PageForgotPasswordComponent</title>
<polygon fill="#ffffb3" stroke="black" points="768.53,-122 569.47,-122 569.47,-86 768.53,-86 768.53,-122"/>
<text text-anchor="middle" x="669" y="-99.8" font-family="Times,serif" font-size="14.00">PageForgotPasswordComponent</text>
</g>
<!-- LoginModule -->
<g id="node5" class="node">
<title>LoginModule</title>
<polygon fill="#8dd3c7" stroke="black" points="501.49,-187 498.49,-191 477.49,-191 474.49,-187 408.51,-187 408.51,-151 501.49,-151 501.49,-187"/>
<text text-anchor="middle" x="455" y="-164.8" font-family="Times,serif" font-size="14.00">LoginModule</text>
</g>
<!-- PageForgotPasswordComponent&#45;&gt;LoginModule -->
<g id="edge1" class="edge">
<title>PageForgotPasswordComponent&#45;&gt;LoginModule</title>
<path fill="none" stroke="black" d="M669,-122.02C669,-139.37 669,-163 669,-163 669,-163 511.7,-163 511.7,-163"/>
<polygon fill="black" stroke="black" points="511.7,-159.5 501.7,-163 511.7,-166.5 511.7,-159.5"/>
</g>
<!-- PageResetPasswordComponent -->
<g id="node2" class="node">
<title>PageResetPasswordComponent</title>
<polygon fill="#ffffb3" stroke="black" points="551.8,-122 358.2,-122 358.2,-86 551.8,-86 551.8,-122"/>
<text text-anchor="middle" x="455" y="-99.8" font-family="Times,serif" font-size="14.00">PageResetPasswordComponent</text>
</g>
<!-- PageResetPasswordComponent&#45;&gt;LoginModule -->
<g id="edge2" class="edge">
<title>PageResetPasswordComponent&#45;&gt;LoginModule</title>
<path fill="none" stroke="black" d="M455,-122.11C455,-122.11 455,-140.99 455,-140.99"/>
<polygon fill="black" stroke="black" points="451.5,-140.99 455,-150.99 458.5,-140.99 451.5,-140.99"/>
</g>
<!-- PageSignInComponent -->
<g id="node3" class="node">
<title>PageSignInComponent</title>
<polygon fill="#ffffb3" stroke="black" points="339.88,-122 194.12,-122 194.12,-86 339.88,-86 339.88,-122"/>
<text text-anchor="middle" x="267" y="-99.8" font-family="Times,serif" font-size="14.00">PageSignInComponent</text>
</g>
<!-- PageSignInComponent&#45;&gt;LoginModule -->
<g id="edge3" class="edge">
<title>PageSignInComponent&#45;&gt;LoginModule</title>
<path fill="none" stroke="black" d="M267,-122.02C267,-139.37 267,-163 267,-163 267,-163 398.04,-163 398.04,-163"/>
<polygon fill="black" stroke="black" points="398.04,-166.5 408.04,-163 398.04,-159.5 398.04,-166.5"/>
</g>
<!-- PageSignUpComponent -->
<g id="node4" class="node">
<title>PageSignUpComponent</title>
<polygon fill="#ffffb3" stroke="black" points="175.82,-122 24.18,-122 24.18,-86 175.82,-86 175.82,-122"/>
<text text-anchor="middle" x="100" y="-99.8" font-family="Times,serif" font-size="14.00">PageSignUpComponent</text>
</g>
<!-- PageSignUpComponent&#45;&gt;LoginModule -->
<g id="edge4" class="edge">
<title>PageSignUpComponent&#45;&gt;LoginModule</title>
<path fill="none" stroke="black" d="M100,-122.28C100,-143.32 100,-175 100,-175 100,-175 398.22,-175 398.22,-175"/>
<polygon fill="black" stroke="black" points="398.22,-178.5 408.22,-175 398.22,-171.5 398.22,-178.5"/>
</g>
<!-- LoginRoutingModule -->
<g id="node6" class="node">
<title>LoginRoutingModule</title>
<polygon fill="#8dd3c7" stroke="black" points="931.11,-122 928.11,-126 907.11,-126 904.11,-122 792.89,-122 792.89,-86 931.11,-86 931.11,-122"/>
<text text-anchor="middle" x="862" y="-99.8" font-family="Times,serif" font-size="14.00">LoginRoutingModule</text>
</g>
<!-- LoginRoutingModule&#45;&gt;LoginModule -->
<g id="edge5" class="edge">
<title>LoginRoutingModule&#45;&gt;LoginModule</title>
<path fill="none" stroke="black" d="M862,-122.28C862,-143.32 862,-175 862,-175 862,-175 511.69,-175 511.69,-175"/>
<polygon fill="black" stroke="black" points="511.69,-171.5 501.69,-175 511.69,-178.5 511.69,-171.5"/>
</g>
</g>
</svg>
