<?xml version="1.0" encoding="UTF-8" standalone="no"?>
<!DOCTYPE svg PUBLIC "-//W3C//DTD SVG 1.1//EN"
 "http://www.w3.org/Graphics/SVG/1.1/DTD/svg11.dtd">
<!-- Generated by graphviz version 2.47.0 (20210316.0004)
 -->
<!-- Title: dependencies Pages: 1 -->
<svg width="3638pt" height="290pt"
 viewBox="0.00 0.00 3638.00 290.00" xmlns="http://www.w3.org/2000/svg" xmlns:xlink="http://www.w3.org/1999/xlink">
<g id="graph0" class="graph" transform="scale(1 1) rotate(0) translate(4 286)">
<title>dependencies</title>
<polygon fill="white" stroke="transparent" points="-4,4 -4,-286 3634,-286 3634,4 -4,4"/>
<text text-anchor="start" x="1794.01" y="-42.4" font-family="sans-serif" font-weight="bold" font-size="14.00">Legend</text>
<polygon fill="#ffffb3" stroke="transparent" points="1581,-10 1581,-30 1601,-30 1601,-10 1581,-10"/>
<text text-anchor="start" x="1604.63" y="-15.4" font-family="sans-serif" font-size="14.00"> &#160;Declarations</text>
<polygon fill="#8dd3c7" stroke="transparent" points="1694,-10 1694,-30 1714,-30 1714,-10 1694,-10"/>
<text text-anchor="start" x="1717.73" y="-15.4" font-family="sans-serif" font-size="14.00"> &#160;Module</text>
<polygon fill="#80b1d3" stroke="transparent" points="1780,-10 1780,-30 1800,-30 1800,-10 1780,-10"/>
<text text-anchor="start" x="1803.78" y="-15.4" font-family="sans-serif" font-size="14.00"> &#160;Bootstrap</text>
<polygon fill="#fdb462" stroke="transparent" points="1877,-10 1877,-30 1897,-30 1897,-10 1877,-10"/>
<text text-anchor="start" x="1900.67" y="-15.4" font-family="sans-serif" font-size="14.00"> &#160;Providers</text>
<polygon fill="#fb8072" stroke="transparent" points="1973,-10 1973,-30 1993,-30 1993,-10 1973,-10"/>
<text text-anchor="start" x="1996.73" y="-15.4" font-family="sans-serif" font-size="14.00"> &#160;Exports</text>
<g id="clust1" class="cluster">
<title>cluster_AppModule</title>
<polygon fill="none" stroke="black" stroke-dasharray="1,5" points="8,-70 8,-274 403,-274 403,-70 8,-70"/>
</g>
<g id="clust2" class="cluster">
<title>cluster_AppModule_declarations</title>
<polygon fill="none" stroke="black" points="16,-78 16,-130 138,-130 138,-78 16,-78"/>
</g>
<g id="clust4" class="cluster">
<title>cluster_AppModule_imports</title>
<polygon fill="none" stroke="black" points="146,-78 146,-130 395,-130 395,-78 146,-78"/>
</g>
<g id="clust6" class="cluster">
<title>cluster_AppModule_bootstrap</title>
<polygon fill="none" stroke="black" points="156,-214 156,-266 280,-266 280,-214 156,-214"/>
</g>
<g id="clust14" class="cluster">
<title>cluster_ClientsModule</title>
<polygon fill="none" stroke="black" stroke-dasharray="1,5" points="779,-70 779,-198 1517,-198 1517,-70 779,-70"/>
</g>
<g id="clust15" class="cluster">
<title>cluster_ClientsModule_declarations</title>
<polygon fill="none" stroke="black" points="955,-78 955,-130 1509,-130 1509,-78 955,-78"/>
</g>
<g id="clust19" class="cluster">
<title>cluster_ClientsModule_imports</title>
<polygon fill="none" stroke="black" points="787,-78 787,-130 947,-130 947,-78 787,-78"/>
</g>
<g id="clust29" class="cluster">
<title>cluster_CoreModule</title>
<polygon fill="none" stroke="black" stroke-dasharray="1,5" points="411,-138 411,-206 771,-206 771,-138 411,-138"/>
</g>
<g id="clust32" class="cluster">
<title>cluster_CoreModule_exports</title>
<polygon fill="none" stroke="black" points="419,-146 419,-198 763,-198 763,-146 419,-146"/>
</g>
<g id="clust41" class="cluster">
<title>cluster_LoginModule</title>
<polygon fill="none" stroke="black" stroke-dasharray="1,5" points="1525,-70 1525,-198 2464,-198 2464,-70 1525,-70"/>
</g>
<g id="clust42" class="cluster">
<title>cluster_LoginModule_declarations</title>
<polygon fill="none" stroke="black" points="1695,-78 1695,-130 2456,-130 2456,-78 1695,-78"/>
</g>
<g id="clust47" class="cluster">
<title>cluster_LoginModule_imports</title>
<polygon fill="none" stroke="black" points="1533,-78 1533,-130 1687,-130 1687,-78 1533,-78"/>
</g>
<g id="clust57" class="cluster">
<title>cluster_OrdersModule</title>
<polygon fill="none" stroke="black" stroke-dasharray="1,5" points="2472,-70 2472,-198 3204,-198 3204,-70 2472,-70"/>
</g>
<g id="clust58" class="cluster">
<title>cluster_OrdersModule_declarations</title>
<polygon fill="none" stroke="black" points="2646,-78 2646,-130 3196,-130 3196,-78 2646,-78"/>
</g>
<g id="clust62" class="cluster">
<title>cluster_OrdersModule_imports</title>
<polygon fill="none" stroke="black" points="2480,-78 2480,-130 2638,-130 2638,-78 2480,-78"/>
</g>
<g id="clust72" class="cluster">
<title>cluster_PageNotFoundModule</title>
<polygon fill="none" stroke="black" stroke-dasharray="1,5" points="3212,-70 3212,-198 3622,-198 3622,-70 3212,-70"/>
</g>
<g id="clust73" class="cluster">
<title>cluster_PageNotFoundModule_declarations</title>
<polygon fill="none" stroke="black" points="3432,-78 3432,-130 3614,-130 3614,-78 3432,-78"/>
</g>
<g id="clust75" class="cluster">
<title>cluster_PageNotFoundModule_imports</title>
<polygon fill="none" stroke="black" points="3220,-78 3220,-130 3424,-130 3424,-78 3220,-78"/>
</g>
<!-- AppComponent -->
<g id="node1" class="node">
<title>AppComponent</title>
<polygon fill="#ffffb3" stroke="black" points="129.94,-122 24.06,-122 24.06,-86 129.94,-86 129.94,-122"/>
<text text-anchor="middle" x="77" y="-99.8" font-family="Times,serif" font-size="14.00">AppComponent</text>
</g>
<!-- AppModule -->
<g id="node2" class="node">
<title>AppModule</title>
<polygon fill="#8dd3c7" stroke="black" points="259.66,-190 256.66,-194 235.66,-194 232.66,-190 176.34,-190 176.34,-154 259.66,-154 259.66,-190"/>
<text text-anchor="middle" x="218" y="-167.8" font-family="Times,serif" font-size="14.00">AppModule</text>
</g>
<!-- AppComponent&#45;&gt;AppModule -->
<g id="edge1" class="edge">
<title>AppComponent&#45;&gt;AppModule</title>
<path fill="none" stroke="black" d="M77,-122.22C77,-142.37 77,-172 77,-172 77,-172 166.08,-172 166.08,-172"/>
<polygon fill="black" stroke="black" points="166.08,-175.5 176.08,-172 166.08,-168.5 166.08,-175.5"/>
</g>
<!-- AppComponent  -->
<g id="node5" class="node">
<title>AppComponent </title>
<polygon fill="#80b1d3" stroke="black" points="272.44,-258 163.56,-258 163.56,-222 272.44,-222 272.44,-258"/>
<text text-anchor="middle" x="218" y="-235.8" font-family="Times,serif" font-size="14.00">AppComponent </text>
</g>
<!-- AppModule&#45;&gt;AppComponent  -->
<g id="edge4" class="edge">
<title>AppModule&#45;&gt;AppComponent </title>
<path fill="none" stroke="black" stroke-dasharray="1,5" d="M218,-190.22C218,-190.22 218,-211.73 218,-211.73"/>
<polygon fill="black" stroke="black" points="214.5,-211.73 218,-221.73 221.5,-211.73 214.5,-211.73"/>
</g>
<!-- AppRoutingModule -->
<g id="node3" class="node">
<title>AppRoutingModule</title>
<polygon fill="#8dd3c7" stroke="black" points="282.27,-122 279.27,-126 258.27,-126 255.27,-122 153.73,-122 153.73,-86 282.27,-86 282.27,-122"/>
<text text-anchor="middle" x="218" y="-99.8" font-family="Times,serif" font-size="14.00">AppRoutingModule</text>
</g>
<!-- AppRoutingModule&#45;&gt;AppModule -->
<g id="edge2" class="edge">
<title>AppRoutingModule&#45;&gt;AppModule</title>
<path fill="none" stroke="black" d="M218,-122.22C218,-122.22 218,-143.73 218,-143.73"/>
<polygon fill="black" stroke="black" points="214.5,-143.73 218,-153.73 221.5,-143.73 214.5,-143.73"/>
</g>
<!-- CoreModule -->
<g id="node4" class="node">
<title>CoreModule</title>
<polygon fill="#8dd3c7" stroke="black" points="387.26,-122 384.26,-126 363.26,-126 360.26,-122 300.74,-122 300.74,-86 387.26,-86 387.26,-122"/>
<text text-anchor="middle" x="344" y="-99.8" font-family="Times,serif" font-size="14.00">CoreModule</text>
</g>
<!-- CoreModule&#45;&gt;AppModule -->
<g id="edge3" class="edge">
<title>CoreModule&#45;&gt;AppModule</title>
<path fill="none" stroke="black" d="M344,-122.22C344,-142.37 344,-172 344,-172 344,-172 269.96,-172 269.96,-172"/>
<polygon fill="black" stroke="black" points="269.96,-168.5 259.96,-172 269.96,-175.5 269.96,-168.5"/>
</g>
<!-- IconsModule  -->
<g id="node11" class="node">
<title>IconsModule </title>
<polygon fill="#fb8072" stroke="black" points="754.87,-190 661.13,-190 661.13,-154 754.87,-154 754.87,-190"/>
<text text-anchor="middle" x="708" y="-167.8" font-family="Times,serif" font-size="14.00">IconsModule </text>
</g>
<!-- CoreModule&#45;&gt;IconsModule  -->
<g id="edge9" class="edge">
<title>CoreModule&#45;&gt;IconsModule </title>
<path fill="none" stroke="black" stroke-dasharray="5,2" d="M387.55,-95C484.16,-95 708,-95 708,-95 708,-95 708,-143.75 708,-143.75"/>
<polygon fill="black" stroke="black" points="704.5,-143.75 708,-153.75 711.5,-143.75 704.5,-143.75"/>
</g>
<!-- TemplatesModule  -->
<g id="node12" class="node">
<title>TemplatesModule </title>
<polygon fill="#fb8072" stroke="black" points="643.86,-190 522.14,-190 522.14,-154 643.86,-154 643.86,-190"/>
<text text-anchor="middle" x="583" y="-167.8" font-family="Times,serif" font-size="14.00">TemplatesModule </text>
</g>
<!-- CoreModule&#45;&gt;TemplatesModule  -->
<g id="edge10" class="edge">
<title>CoreModule&#45;&gt;TemplatesModule </title>
<path fill="none" stroke="black" stroke-dasharray="5,2" d="M387.28,-104C456.15,-104 583,-104 583,-104 583,-104 583,-143.78 583,-143.78"/>
<polygon fill="black" stroke="black" points="579.5,-143.78 583,-153.78 586.5,-143.78 579.5,-143.78"/>
</g>
<!-- UiModule  -->
<g id="node13" class="node">
<title>UiModule </title>
<polygon fill="#fb8072" stroke="black" points="504.55,-190 427.45,-190 427.45,-154 504.55,-154 504.55,-190"/>
<text text-anchor="middle" x="466" y="-167.8" font-family="Times,serif" font-size="14.00">UiModule </text>
</g>
<!-- CoreModule&#45;&gt;UiModule  -->
<g id="edge11" class="edge">
<title>CoreModule&#45;&gt;UiModule </title>
<path fill="none" stroke="black" stroke-dasharray="5,2" d="M387.36,-113C422.42,-113 466,-113 466,-113 466,-113 466,-143.98 466,-143.98"/>
<polygon fill="black" stroke="black" points="462.5,-143.98 466,-153.98 469.5,-143.98 462.5,-143.98"/>
</g>
<!-- PageAddClientComponent -->
<g id="node6" class="node">
<title>PageAddClientComponent</title>
<polygon fill="#ffffb3" stroke="black" points="1501.37,-122 1334.63,-122 1334.63,-86 1501.37,-86 1501.37,-122"/>
<text text-anchor="middle" x="1418" y="-99.8" font-family="Times,serif" font-size="14.00">PageAddClientComponent</text>
</g>
<!-- ClientsModule -->
<g id="node9" class="node">
<title>ClientsModule</title>
<polygon fill="#8dd3c7" stroke="black" points="1190.72,-190 1187.72,-194 1166.72,-194 1163.72,-190 1091.28,-190 1091.28,-154 1190.72,-154 1190.72,-190"/>
<text text-anchor="middle" x="1141" y="-167.8" font-family="Times,serif" font-size="14.00">ClientsModule</text>
</g>
<!-- PageAddClientComponent&#45;&gt;ClientsModule -->
<g id="edge5" class="edge">
<title>PageAddClientComponent&#45;&gt;ClientsModule</title>
<path fill="none" stroke="black" d="M1418,-122.02C1418,-139.37 1418,-163 1418,-163 1418,-163 1200.84,-163 1200.84,-163"/>
<polygon fill="black" stroke="black" points="1200.84,-159.5 1190.84,-163 1200.84,-166.5 1200.84,-159.5"/>
</g>
<!-- PageEditClientComponent -->
<g id="node7" class="node">
<title>PageEditClientComponent</title>
<polygon fill="#ffffb3" stroke="black" points="1317.1,-122 1150.9,-122 1150.9,-86 1317.1,-86 1317.1,-122"/>
<text text-anchor="middle" x="1234" y="-99.8" font-family="Times,serif" font-size="14.00">PageEditClientComponent</text>
</g>
<!-- PageEditClientComponent&#45;&gt;ClientsModule -->
<g id="edge6" class="edge">
<title>PageEditClientComponent&#45;&gt;ClientsModule</title>
<path fill="none" stroke="black" d="M1170.78,-122.22C1170.78,-122.22 1170.78,-143.73 1170.78,-143.73"/>
<polygon fill="black" stroke="black" points="1167.28,-143.73 1170.78,-153.73 1174.28,-143.73 1167.28,-143.73"/>
</g>
<!-- PageListClientsComponent -->
<g id="node8" class="node">
<title>PageListClientsComponent</title>
<polygon fill="#ffffb3" stroke="black" points="1132.99,-122 963.01,-122 963.01,-86 1132.99,-86 1132.99,-122"/>
<text text-anchor="middle" x="1048" y="-99.8" font-family="Times,serif" font-size="14.00">PageListClientsComponent</text>
</g>
<!-- PageListClientsComponent&#45;&gt;ClientsModule -->
<g id="edge7" class="edge">
<title>PageListClientsComponent&#45;&gt;ClientsModule</title>
<path fill="none" stroke="black" d="M1112.19,-122.22C1112.19,-122.22 1112.19,-143.73 1112.19,-143.73"/>
<polygon fill="black" stroke="black" points="1108.69,-143.73 1112.19,-153.73 1115.69,-143.73 1108.69,-143.73"/>
</g>
<!-- ClientsRoutingModule -->
<g id="node10" class="node">
<title>ClientsRoutingModule</title>
<polygon fill="#8dd3c7" stroke="black" points="939.34,-122 936.34,-126 915.34,-126 912.34,-122 794.66,-122 794.66,-86 939.34,-86 939.34,-122"/>
<text text-anchor="middle" x="867" y="-99.8" font-family="Times,serif" font-size="14.00">ClientsRoutingModule</text>
</g>
<!-- ClientsRoutingModule&#45;&gt;ClientsModule -->
<g id="edge8" class="edge">
<title>ClientsRoutingModule&#45;&gt;ClientsModule</title>
<path fill="none" stroke="black" d="M867,-122.22C867,-142.37 867,-172 867,-172 867,-172 1081.38,-172 1081.38,-172"/>
<polygon fill="black" stroke="black" points="1081.38,-175.5 1091.38,-172 1081.38,-168.5 1081.38,-175.5"/>
</g>
<!-- PageForgotPasswordComponent -->
<g id="node14" class="node">
<title>PageForgotPasswordComponent</title>
<polygon fill="#ffffb3" stroke="black" points="2447.53,-122 2248.47,-122 2248.47,-86 2447.53,-86 2447.53,-122"/>
<text text-anchor="middle" x="2348" y="-99.8" font-family="Times,serif" font-size="14.00">PageForgotPasswordComponent</text>
</g>
<!-- LoginModule -->
<g id="node18" class="node">
<title>LoginModule</title>
<polygon fill="#8dd3c7" stroke="black" points="1992.49,-190 1989.49,-194 1968.49,-194 1965.49,-190 1899.51,-190 1899.51,-154 1992.49,-154 1992.49,-190"/>
<text text-anchor="middle" x="1946" y="-167.8" font-family="Times,serif" font-size="14.00">LoginModule</text>
</g>
<!-- PageForgotPasswordComponent&#45;&gt;LoginModule -->
<g id="edge12" class="edge">
<title>PageForgotPasswordComponent&#45;&gt;LoginModule</title>
<path fill="none" stroke="black" d="M2348,-122.25C2348,-145.02 2348,-181 2348,-181 2348,-181 2002.51,-181 2002.51,-181"/>
<polygon fill="black" stroke="black" points="2002.51,-177.5 1992.51,-181 2002.51,-184.5 2002.51,-177.5"/>
</g>
<!-- PageResetPasswordComponent -->
<g id="node15" class="node">
<title>PageResetPasswordComponent</title>
<polygon fill="#ffffb3" stroke="black" points="2230.8,-122 2037.2,-122 2037.2,-86 2230.8,-86 2230.8,-122"/>
<text text-anchor="middle" x="2134" y="-99.8" font-family="Times,serif" font-size="14.00">PageResetPasswordComponent</text>
</g>
<!-- PageResetPasswordComponent&#45;&gt;LoginModule -->
<g id="edge13" class="edge">
<title>PageResetPasswordComponent&#45;&gt;LoginModule</title>
<path fill="none" stroke="black" d="M2134,-122.22C2134,-142.37 2134,-172 2134,-172 2134,-172 2002.96,-172 2002.96,-172"/>
<polygon fill="black" stroke="black" points="2002.96,-168.5 1992.96,-172 2002.96,-175.5 2002.96,-168.5"/>
</g>
<!-- PageSignInComponent -->
<g id="node16" class="node">
<title>PageSignInComponent</title>
<polygon fill="#ffffb3" stroke="black" points="2018.88,-122 1873.12,-122 1873.12,-86 2018.88,-86 2018.88,-122"/>
<text text-anchor="middle" x="1946" y="-99.8" font-family="Times,serif" font-size="14.00">PageSignInComponent</text>
</g>
<!-- PageSignInComponent&#45;&gt;LoginModule -->
<g id="edge14" class="edge">
<title>PageSignInComponent&#45;&gt;LoginModule</title>
<path fill="none" stroke="black" d="M1946,-122.22C1946,-122.22 1946,-143.73 1946,-143.73"/>
<polygon fill="black" stroke="black" points="1942.5,-143.73 1946,-153.73 1949.5,-143.73 1942.5,-143.73"/>
</g>
<!-- PageSignUpComponent -->
<g id="node17" class="node">
<title>PageSignUpComponent</title>
<polygon fill="#ffffb3" stroke="black" points="1854.82,-122 1703.18,-122 1703.18,-86 1854.82,-86 1854.82,-122"/>
<text text-anchor="middle" x="1779" y="-99.8" font-family="Times,serif" font-size="14.00">PageSignUpComponent</text>
</g>
<!-- PageSignUpComponent&#45;&gt;LoginModule -->
<g id="edge15" class="edge">
<title>PageSignUpComponent&#45;&gt;LoginModule</title>
<path fill="none" stroke="black" d="M1779,-122.22C1779,-142.37 1779,-172 1779,-172 1779,-172 1889.48,-172 1889.48,-172"/>
<polygon fill="black" stroke="black" points="1889.48,-175.5 1899.48,-172 1889.48,-168.5 1889.48,-175.5"/>
</g>
<!-- LoginRoutingModule -->
<g id="node19" class="node">
<title>LoginRoutingModule</title>
<polygon fill="#8dd3c7" stroke="black" points="1679.11,-122 1676.11,-126 1655.11,-126 1652.11,-122 1540.89,-122 1540.89,-86 1679.11,-86 1679.11,-122"/>
<text text-anchor="middle" x="1610" y="-99.8" font-family="Times,serif" font-size="14.00">LoginRoutingModule</text>
</g>
<!-- LoginRoutingModule&#45;&gt;LoginModule -->
<g id="edge16" class="edge">
<title>LoginRoutingModule&#45;&gt;LoginModule</title>
<path fill="none" stroke="black" d="M1610,-122.25C1610,-145.02 1610,-181 1610,-181 1610,-181 1889.28,-181 1889.28,-181"/>
<polygon fill="black" stroke="black" points="1889.28,-184.5 1899.28,-181 1889.28,-177.5 1889.28,-184.5"/>
</g>
<!-- PageAddOrderComponent -->
<g id="node20" class="node">
<title>PageAddOrderComponent</title>
<polygon fill="#ffffb3" stroke="black" points="3187.79,-122 3022.21,-122 3022.21,-86 3187.79,-86 3187.79,-122"/>
<text text-anchor="middle" x="3105" y="-99.8" font-family="Times,serif" font-size="14.00">PageAddOrderComponent</text>
</g>
<!-- OrdersModule -->
<g id="node23" class="node">
<title>OrdersModule</title>
<polygon fill="#8dd3c7" stroke="black" points="2878.64,-190 2875.64,-194 2854.64,-194 2851.64,-190 2781.36,-190 2781.36,-154 2878.64,-154 2878.64,-190"/>
<text text-anchor="middle" x="2830" y="-167.8" font-family="Times,serif" font-size="14.00">OrdersModule</text>
</g>
<!-- PageAddOrderComponent&#45;&gt;OrdersModule -->
<g id="edge17" class="edge">
<title>PageAddOrderComponent&#45;&gt;OrdersModule</title>
<path fill="none" stroke="black" d="M3105,-122.22C3105,-142.37 3105,-172 3105,-172 3105,-172 2888.85,-172 2888.85,-172"/>
<polygon fill="black" stroke="black" points="2888.85,-168.5 2878.85,-172 2888.85,-175.5 2888.85,-168.5"/>
</g>
<!-- PageEditOrderComponent -->
<g id="node21" class="node">
<title>PageEditOrderComponent</title>
<polygon fill="#ffffb3" stroke="black" points="3004.02,-122 2839.98,-122 2839.98,-86 3004.02,-86 3004.02,-122"/>
<text text-anchor="middle" x="2922" y="-99.8" font-family="Times,serif" font-size="14.00">PageEditOrderComponent</text>
</g>
<!-- PageEditOrderComponent&#45;&gt;OrdersModule -->
<g id="edge18" class="edge">
<title>PageEditOrderComponent&#45;&gt;OrdersModule</title>
<path fill="none" stroke="black" d="M2859.28,-122.22C2859.28,-122.22 2859.28,-143.73 2859.28,-143.73"/>
<polygon fill="black" stroke="black" points="2855.78,-143.73 2859.28,-153.73 2862.78,-143.73 2855.78,-143.73"/>
</g>
<!-- PageListOrdersComponent -->
<g id="node22" class="node">
<title>PageListOrdersComponent</title>
<polygon fill="#ffffb3" stroke="black" points="2822.41,-122 2653.59,-122 2653.59,-86 2822.41,-86 2822.41,-122"/>
<text text-anchor="middle" x="2738" y="-99.8" font-family="Times,serif" font-size="14.00">PageListOrdersComponent</text>
</g>
<!-- PageListOrdersComponent&#45;&gt;OrdersModule -->
<g id="edge19" class="edge">
<title>PageListOrdersComponent&#45;&gt;OrdersModule</title>
<path fill="none" stroke="black" d="M2801.69,-122.22C2801.69,-122.22 2801.69,-143.73 2801.69,-143.73"/>
<polygon fill="black" stroke="black" points="2798.19,-143.73 2801.69,-153.73 2805.19,-143.73 2798.19,-143.73"/>
</g>
<!-- OrdersRoutingModule -->
<g id="node24" class="node">
<title>OrdersRoutingModule</title>
<polygon fill="#8dd3c7" stroke="black" points="2630.25,-122 2627.25,-126 2606.25,-126 2603.25,-122 2487.75,-122 2487.75,-86 2630.25,-86 2630.25,-122"/>
<text text-anchor="middle" x="2559" y="-99.8" font-family="Times,serif" font-size="14.00">OrdersRoutingModule</text>
</g>
<!-- OrdersRoutingModule&#45;&gt;OrdersModule -->
<g id="edge20" class="edge">
<title>OrdersRoutingModule&#45;&gt;OrdersModule</title>
<path fill="none" stroke="black" d="M2559,-122.02C2559,-139.37 2559,-163 2559,-163 2559,-163 2771.24,-163 2771.24,-163"/>
<polygon fill="black" stroke="black" points="2771.24,-166.5 2781.24,-163 2771.24,-159.5 2771.24,-166.5"/>
</g>
<!-- PageNotFoundComponent -->
<g id="node25" class="node">
<title>PageNotFoundComponent</title>
<polygon fill="#ffffb3" stroke="black" points="3605.82,-122 3440.18,-122 3440.18,-86 3605.82,-86 3605.82,-122"/>
<text text-anchor="middle" x="3523" y="-99.8" font-family="Times,serif" font-size="14.00">PageNotFoundComponent</text>
</g>
<!-- PageNotFoundModule -->
<g id="node26" class="node">
<title>PageNotFoundModule</title>
<polygon fill="#8dd3c7" stroke="black" points="3493.54,-190 3490.54,-194 3469.54,-194 3466.54,-190 3350.46,-190 3350.46,-154 3493.54,-154 3493.54,-190"/>
<text text-anchor="middle" x="3422" y="-167.8" font-family="Times,serif" font-size="14.00">PageNotFoundModule</text>
</g>
<!-- PageNotFoundComponent&#45;&gt;PageNotFoundModule -->
<g id="edge21" class="edge">
<title>PageNotFoundComponent&#45;&gt;PageNotFoundModule</title>
<path fill="none" stroke="black" d="M3467.05,-122.22C3467.05,-122.22 3467.05,-143.73 3467.05,-143.73"/>
<polygon fill="black" stroke="black" points="3463.55,-143.73 3467.05,-153.73 3470.55,-143.73 3463.55,-143.73"/>
</g>
<!-- PageNotFoundRoutingModule -->
<g id="node27" class="node">
<title>PageNotFoundRoutingModule</title>
<polygon fill="#8dd3c7" stroke="black" points="3416.16,-122 3413.16,-126 3392.16,-126 3389.16,-122 3227.84,-122 3227.84,-86 3416.16,-86 3416.16,-122"/>
<text text-anchor="middle" x="3322" y="-99.8" font-family="Times,serif" font-size="14.00">PageNotFoundRoutingModule</text>
</g>
<!-- PageNotFoundRoutingModule&#45;&gt;PageNotFoundModule -->
<g id="edge22" class="edge">
<title>PageNotFoundRoutingModule&#45;&gt;PageNotFoundModule</title>
<path fill="none" stroke="black" d="M3383.28,-122.22C3383.28,-122.22 3383.28,-143.73 3383.28,-143.73"/>
<polygon fill="black" stroke="black" points="3379.78,-143.73 3383.28,-153.73 3386.78,-143.73 3379.78,-143.73"/>
</g>
</g>
</svg>
